<mxfile host="Electron" agent="Mozilla/5.0 (Windows NT 10.0; Win64; x64) AppleWebKit/537.36 (KHTML, like Gecko) draw.io/28.1.2 Chrome/138.0.7204.243 Electron/37.4.0 Safari/537.36" version="28.1.2">
  <diagram name="Página-1" id="q9wKB2y8I9tIrR55UYk9">
    <mxGraphModel dx="1737" dy="1283" grid="1" gridSize="10" guides="1" tooltips="1" connect="1" arrows="1" fold="1" page="1" pageScale="1" pageWidth="1520" pageHeight="827" math="0" shadow="0">
      <root>
        <mxCell id="0" />
        <mxCell id="1" parent="0" />
        <mxCell id="KSBKpyr5LSnVgIoycmXs-1" value="&lt;font style=&quot;font-size: 18px;&quot;&gt;&lt;b&gt;Actividad 10 - Diseño de la base de datos de una agencia de viaje&lt;/b&gt;&lt;/font&gt;" style="swimlane;fontStyle=0;childLayout=stackLayout;horizontal=1;startSize=30;horizontalStack=0;resizeParent=1;resizeParentMax=0;resizeLast=0;collapsible=1;marginBottom=0;whiteSpace=wrap;html=1;" parent="1" vertex="1">
          <mxGeometry y="737" width="1520" height="90" as="geometry" />
        </mxCell>
        <mxCell id="KSBKpyr5LSnVgIoycmXs-2" value="&lt;font style=&quot;font-size: 18px;&quot;&gt;Por Elías Valdez Miranda&lt;span style=&quot;white-space: pre;&quot;&gt;&#x9;&lt;/span&gt;&lt;span style=&quot;white-space: pre;&quot;&gt;&#x9;&lt;/span&gt;&lt;span style=&quot;white-space: pre;&quot;&gt;&#x9;&lt;/span&gt;&lt;span style=&quot;white-space: pre;&quot;&gt;&#x9;&lt;/span&gt;&lt;span style=&quot;white-space: pre;&quot;&gt;&#x9;&lt;/span&gt;&lt;span style=&quot;white-space: pre;&quot;&gt;&#x9;&lt;/span&gt;&lt;span style=&quot;white-space: pre;&quot;&gt;&#x9;&lt;/span&gt;&lt;span style=&quot;white-space: pre;&quot;&gt;&#x9;&lt;/span&gt;&lt;span style=&quot;white-space: pre;&quot;&gt;&#x9;&lt;/span&gt;&lt;span style=&quot;white-space: pre;&quot;&gt;&#x9;&lt;/span&gt;Clave 4116: Bases de Datos I&lt;span style=&quot;white-space: pre;&quot;&gt;&#x9;&lt;span style=&quot;white-space: pre;&quot;&gt;&#x9;&lt;/span&gt;&lt;span style=&quot;white-space: pre;&quot;&gt;&#x9;&lt;/span&gt;&lt;span style=&quot;white-space: pre;&quot;&gt;&#x9;&lt;/span&gt;&lt;span style=&quot;white-space: pre;&quot;&gt;&#x9;&lt;/span&gt;&lt;span style=&quot;white-space: pre;&quot;&gt;&#x9;&lt;/span&gt;&lt;span style=&quot;white-space: pre;&quot;&gt;&#x9;&lt;span style=&quot;white-space: pre;&quot;&gt;&#x9;&lt;span style=&quot;white-space: pre;&quot;&gt;&#x9;&lt;span style=&quot;white-space: pre;&quot;&gt;&#x9;&lt;span style=&quot;white-space: pre;&quot;&gt;&#x9;&lt;span style=&quot;white-space: pre;&quot;&gt;&#x9;&lt;/span&gt;&lt;/span&gt;&lt;/span&gt;&lt;/span&gt;&lt;/span&gt;&lt;/span&gt;&lt;/span&gt;&lt;span style=&quot;white-space: pre;&quot;&gt;2&lt;/span&gt;2&amp;nbsp;de septiembre de 2025&lt;/font&gt;" style="text;strokeColor=none;fillColor=none;align=left;verticalAlign=middle;spacingLeft=4;spacingRight=4;overflow=hidden;points=[[0,0.5],[1,0.5]];portConstraint=eastwest;rotatable=0;whiteSpace=wrap;html=1;" parent="KSBKpyr5LSnVgIoycmXs-1" vertex="1">
          <mxGeometry y="30" width="1520" height="30" as="geometry" />
        </mxCell>
        <mxCell id="KSBKpyr5LSnVgIoycmXs-3" value="&lt;font style=&quot;font-size: 18px;&quot;&gt;Ingeniería en Sistemas de Información, Universidad de Sonora&lt;span style=&quot;white-space: pre;&quot;&gt;&#x9;&lt;/span&gt;&lt;span style=&quot;white-space: pre;&quot;&gt;&#x9;&lt;/span&gt;&lt;span style=&quot;white-space: pre;&quot;&gt;&#x9;&lt;/span&gt;&lt;span style=&quot;white-space: pre;&quot;&gt;&#x9;&lt;/span&gt;&lt;span style=&quot;white-space: pre;&quot;&gt;&#x9;&lt;/span&gt;&lt;span style=&quot;white-space: pre;&quot;&gt;&#x9;&lt;/span&gt;&lt;span style=&quot;white-space: pre;&quot;&gt;&#x9;&lt;/span&gt;&lt;span style=&quot;white-space: pre;&quot;&gt;&#x9;&lt;/span&gt;&lt;span style=&quot;white-space: pre;&quot;&gt;&#x9;&lt;/span&gt;&lt;span style=&quot;white-space: pre;&quot;&gt;&#x9;&lt;/span&gt;&lt;span style=&quot;white-space: pre;&quot;&gt;&#x9;&lt;span style=&quot;white-space: pre;&quot;&gt;&#x9;&lt;/span&gt;&lt;span style=&quot;white-space: pre;&quot;&gt;&#x9;&lt;/span&gt;&lt;span style=&quot;white-space: pre;&quot;&gt;&#x9;&lt;span style=&quot;white-space: pre;&quot;&gt;&#x9;&lt;span style=&quot;white-space: pre;&quot;&gt;&#x9;&lt;/span&gt; &lt;/span&gt; &lt;/span&gt;&lt;/span&gt;Profesor Navarro Hernández Rene Francisco&lt;/font&gt;" style="text;strokeColor=none;fillColor=none;align=left;verticalAlign=middle;spacingLeft=4;spacingRight=4;overflow=hidden;points=[[0,0.5],[1,0.5]];portConstraint=eastwest;rotatable=0;whiteSpace=wrap;html=1;" parent="KSBKpyr5LSnVgIoycmXs-1" vertex="1">
          <mxGeometry y="60" width="1520" height="30" as="geometry" />
        </mxCell>
        <mxCell id="FS9AGndfqr0U76EZq8IF-3" value="Hotel" style="rounded=1;arcSize=10;whiteSpace=wrap;html=1;align=center;" parent="1" vertex="1">
          <mxGeometry x="171" y="250" width="100" height="40" as="geometry" />
        </mxCell>
        <mxCell id="FS9AGndfqr0U76EZq8IF-8" value="Código de hotel" style="ellipse;whiteSpace=wrap;html=1;align=center;fontStyle=4;" parent="1" vertex="1">
          <mxGeometry x="56" y="300" width="120" height="50" as="geometry" />
        </mxCell>
        <mxCell id="FS9AGndfqr0U76EZq8IF-29" value="Reserva" style="shape=rhombus;perimeter=rhombusPerimeter;whiteSpace=wrap;html=1;align=center;" parent="1" vertex="1">
          <mxGeometry x="970" y="245" width="120" height="50" as="geometry" />
        </mxCell>
        <mxCell id="ZdwJ0yHTc_Pz8evwpBD1-1" value="Nombre" style="ellipse;whiteSpace=wrap;html=1;align=center;" parent="1" vertex="1">
          <mxGeometry x="111" y="185" width="90" height="50" as="geometry" />
        </mxCell>
        <mxCell id="ZdwJ0yHTc_Pz8evwpBD1-2" value="Dirección" style="ellipse;whiteSpace=wrap;html=1;align=center;" parent="1" vertex="1">
          <mxGeometry x="221" y="180" width="90" height="50" as="geometry" />
        </mxCell>
        <mxCell id="ZdwJ0yHTc_Pz8evwpBD1-3" value="Teléfono" style="ellipse;whiteSpace=wrap;html=1;align=center;" parent="1" vertex="1">
          <mxGeometry x="51" y="240" width="90" height="50" as="geometry" />
        </mxCell>
        <mxCell id="ZdwJ0yHTc_Pz8evwpBD1-4" value="Plazas disponibles" style="ellipse;whiteSpace=wrap;html=1;align=center;" parent="1" vertex="1">
          <mxGeometry x="191" y="310" width="90" height="50" as="geometry" />
        </mxCell>
        <mxCell id="ZdwJ0yHTc_Pz8evwpBD1-5" value="Vuelo" style="rounded=1;arcSize=10;whiteSpace=wrap;html=1;align=center;" parent="1" vertex="1">
          <mxGeometry x="1257" y="250" width="100" height="40" as="geometry" />
        </mxCell>
        <mxCell id="ZdwJ0yHTc_Pz8evwpBD1-6" value="Número de vuelo" style="ellipse;whiteSpace=wrap;html=1;align=center;fontStyle=4;" parent="1" vertex="1">
          <mxGeometry x="1180" y="190" width="120" height="50" as="geometry" />
        </mxCell>
        <mxCell id="ZdwJ0yHTc_Pz8evwpBD1-8" value="Fecha" style="ellipse;whiteSpace=wrap;html=1;align=center;" parent="1" vertex="1">
          <mxGeometry x="1427" y="245" width="90" height="50" as="geometry" />
        </mxCell>
        <mxCell id="ZdwJ0yHTc_Pz8evwpBD1-9" value="Hora" style="ellipse;whiteSpace=wrap;html=1;align=center;" parent="1" vertex="1">
          <mxGeometry x="1412" y="310" width="90" height="50" as="geometry" />
        </mxCell>
        <mxCell id="ZdwJ0yHTc_Pz8evwpBD1-10" value="Origen" style="ellipse;whiteSpace=wrap;html=1;align=center;" parent="1" vertex="1">
          <mxGeometry x="1217" y="310" width="90" height="50" as="geometry" />
        </mxCell>
        <mxCell id="ZdwJ0yHTc_Pz8evwpBD1-11" value="Destino" style="ellipse;whiteSpace=wrap;html=1;align=center;" parent="1" vertex="1">
          <mxGeometry x="1315" y="310" width="90" height="50" as="geometry" />
        </mxCell>
        <mxCell id="ZdwJ0yHTc_Pz8evwpBD1-12" value="Total de asientos" style="ellipse;whiteSpace=wrap;html=1;align=center;" parent="1" vertex="1">
          <mxGeometry x="1242" y="140" width="130" height="50" as="geometry" />
        </mxCell>
        <mxCell id="ZdwJ0yHTc_Pz8evwpBD1-13" value="Asientos de clase económica" style="ellipse;whiteSpace=wrap;html=1;align=center;" parent="1" vertex="1">
          <mxGeometry x="1315" y="190" width="130" height="50" as="geometry" />
        </mxCell>
        <mxCell id="ZdwJ0yHTc_Pz8evwpBD1-14" value="Cliente" style="rounded=1;arcSize=10;whiteSpace=wrap;html=1;align=center;" parent="1" vertex="1">
          <mxGeometry x="703" y="250" width="100" height="40" as="geometry" />
        </mxCell>
        <mxCell id="ZdwJ0yHTc_Pz8evwpBD1-15" value="Código de cliente" style="ellipse;whiteSpace=wrap;html=1;align=center;fontStyle=4;" parent="1" vertex="1">
          <mxGeometry x="623" y="140" width="120" height="50" as="geometry" />
        </mxCell>
        <mxCell id="ZdwJ0yHTc_Pz8evwpBD1-16" value="Nombre" style="ellipse;whiteSpace=wrap;html=1;align=center;" parent="1" vertex="1">
          <mxGeometry x="614" y="200" width="80" height="40" as="geometry" />
        </mxCell>
        <mxCell id="ZdwJ0yHTc_Pz8evwpBD1-17" value="Apellidos" style="ellipse;whiteSpace=wrap;html=1;align=center;" parent="1" vertex="1">
          <mxGeometry x="698" y="188" width="80" height="40" as="geometry" />
        </mxCell>
        <mxCell id="ZdwJ0yHTc_Pz8evwpBD1-18" value="Dirección" style="ellipse;whiteSpace=wrap;html=1;align=center;" parent="1" vertex="1">
          <mxGeometry x="753" y="140" width="90" height="50" as="geometry" />
        </mxCell>
        <mxCell id="ZdwJ0yHTc_Pz8evwpBD1-19" value="Número de teléfono" style="ellipse;whiteSpace=wrap;html=1;align=center;" parent="1" vertex="1">
          <mxGeometry x="783" y="190" width="90" height="50" as="geometry" />
        </mxCell>
        <mxCell id="ZdwJ0yHTc_Pz8evwpBD1-20" value="Agencia" style="rounded=1;arcSize=10;whiteSpace=wrap;html=1;align=center;" parent="1" vertex="1">
          <mxGeometry x="1260" y="481" width="100" height="40" as="geometry" />
        </mxCell>
        <mxCell id="ZdwJ0yHTc_Pz8evwpBD1-21" value="Código de agencia" style="ellipse;whiteSpace=wrap;html=1;align=center;fontStyle=4;" parent="1" vertex="1">
          <mxGeometry x="1385" y="476" width="120" height="50" as="geometry" />
        </mxCell>
        <mxCell id="ZdwJ0yHTc_Pz8evwpBD1-22" value="Ciudad" style="ellipse;whiteSpace=wrap;html=1;align=center;" parent="1" vertex="1">
          <mxGeometry x="1250" y="607.5" width="90" height="50" as="geometry" />
        </mxCell>
        <mxCell id="ZdwJ0yHTc_Pz8evwpBD1-23" value="Dirección" style="ellipse;whiteSpace=wrap;html=1;align=center;" parent="1" vertex="1">
          <mxGeometry x="1390" y="537.5" width="90" height="50" as="geometry" />
        </mxCell>
        <mxCell id="ZdwJ0yHTc_Pz8evwpBD1-24" value="Estado" style="ellipse;whiteSpace=wrap;html=1;align=center;" parent="1" vertex="1">
          <mxGeometry x="1355" y="597.5" width="90" height="50" as="geometry" />
        </mxCell>
        <mxCell id="ZdwJ0yHTc_Pz8evwpBD1-25" value="Teléfono" style="ellipse;whiteSpace=wrap;html=1;align=center;" parent="1" vertex="1">
          <mxGeometry x="1160" y="567.5" width="90" height="50" as="geometry" />
        </mxCell>
        <mxCell id="ZdwJ0yHTc_Pz8evwpBD1-26" value="Agentes" style="rounded=1;arcSize=10;whiteSpace=wrap;html=1;align=center;" parent="1" vertex="1">
          <mxGeometry x="703" y="481" width="100" height="40" as="geometry" />
        </mxCell>
        <mxCell id="ZdwJ0yHTc_Pz8evwpBD1-27" value="Número de empleado" style="ellipse;whiteSpace=wrap;html=1;align=center;fontStyle=4;" parent="1" vertex="1">
          <mxGeometry x="773" y="577.5" width="110" height="50" as="geometry" />
        </mxCell>
        <mxCell id="ZdwJ0yHTc_Pz8evwpBD1-28" value="Nombre" style="ellipse;whiteSpace=wrap;html=1;align=center;" parent="1" vertex="1">
          <mxGeometry x="593" y="537.5" width="90" height="50" as="geometry" />
        </mxCell>
        <mxCell id="ZdwJ0yHTc_Pz8evwpBD1-29" value="Fecha de contratación" style="ellipse;whiteSpace=wrap;html=1;align=center;" parent="1" vertex="1">
          <mxGeometry x="563" y="471" width="110" height="60" as="geometry" />
        </mxCell>
        <mxCell id="ZdwJ0yHTc_Pz8evwpBD1-31" value="Número de teléfono" style="ellipse;whiteSpace=wrap;html=1;align=center;" parent="1" vertex="1">
          <mxGeometry x="673" y="577.5" width="90" height="50" as="geometry" />
        </mxCell>
        <mxCell id="ZdwJ0yHTc_Pz8evwpBD1-34" value="Clase preferida" style="ellipse;whiteSpace=wrap;html=1;align=center;" parent="1" vertex="1">
          <mxGeometry x="910" y="200" width="90" height="40" as="geometry" />
        </mxCell>
        <mxCell id="ZdwJ0yHTc_Pz8evwpBD1-35" style="edgeStyle=orthogonalEdgeStyle;rounded=0;orthogonalLoop=1;jettySize=auto;html=1;exitX=0.5;exitY=1;exitDx=0;exitDy=0;" parent="1" edge="1">
          <mxGeometry relative="1" as="geometry">
            <mxPoint x="985" y="235" as="sourcePoint" />
            <mxPoint x="985" y="235" as="targetPoint" />
          </mxGeometry>
        </mxCell>
        <mxCell id="ZdwJ0yHTc_Pz8evwpBD1-36" value="Aloja" style="shape=rhombus;perimeter=rhombusPerimeter;whiteSpace=wrap;html=1;align=center;" parent="1" vertex="1">
          <mxGeometry x="410" y="245" width="120" height="50" as="geometry" />
        </mxCell>
        <mxCell id="ZdwJ0yHTc_Pz8evwpBD1-37" value="Asistido por" style="shape=rhombus;perimeter=rhombusPerimeter;whiteSpace=wrap;html=1;align=center;" parent="1" vertex="1">
          <mxGeometry x="693" y="360" width="120" height="50" as="geometry" />
        </mxCell>
        <mxCell id="ZdwJ0yHTc_Pz8evwpBD1-38" value="Pertenece a" style="shape=rhombus;perimeter=rhombusPerimeter;whiteSpace=wrap;html=1;align=center;" parent="1" vertex="1">
          <mxGeometry x="970" y="476" width="120" height="50" as="geometry" />
        </mxCell>
        <mxCell id="ZdwJ0yHTc_Pz8evwpBD1-40" value="" style="endArrow=none;html=1;rounded=0;exitX=1;exitY=0.5;exitDx=0;exitDy=0;entryX=0;entryY=0.5;entryDx=0;entryDy=0;" parent="1" source="FS9AGndfqr0U76EZq8IF-3" target="ZdwJ0yHTc_Pz8evwpBD1-36" edge="1">
          <mxGeometry width="50" height="50" relative="1" as="geometry">
            <mxPoint x="640" y="430" as="sourcePoint" />
            <mxPoint x="690" y="380" as="targetPoint" />
          </mxGeometry>
        </mxCell>
        <mxCell id="ZdwJ0yHTc_Pz8evwpBD1-43" value="" style="endArrow=none;html=1;rounded=0;entryX=1;entryY=0.5;entryDx=0;entryDy=0;exitX=0;exitY=0.5;exitDx=0;exitDy=0;" parent="1" source="ZdwJ0yHTc_Pz8evwpBD1-14" target="ZdwJ0yHTc_Pz8evwpBD1-36" edge="1">
          <mxGeometry width="50" height="50" relative="1" as="geometry">
            <mxPoint x="593" y="390" as="sourcePoint" />
            <mxPoint x="603" y="270" as="targetPoint" />
          </mxGeometry>
        </mxCell>
        <mxCell id="ZdwJ0yHTc_Pz8evwpBD1-44" value="" style="endArrow=none;html=1;rounded=0;entryX=0.5;entryY=1;entryDx=0;entryDy=0;exitX=0.5;exitY=0;exitDx=0;exitDy=0;" parent="1" source="ZdwJ0yHTc_Pz8evwpBD1-37" target="ZdwJ0yHTc_Pz8evwpBD1-14" edge="1">
          <mxGeometry width="50" height="50" relative="1" as="geometry">
            <mxPoint x="593" y="390" as="sourcePoint" />
            <mxPoint x="643" y="340" as="targetPoint" />
          </mxGeometry>
        </mxCell>
        <mxCell id="ZdwJ0yHTc_Pz8evwpBD1-45" value="" style="endArrow=none;html=1;rounded=0;entryX=0.5;entryY=1;entryDx=0;entryDy=0;exitX=0.5;exitY=0;exitDx=0;exitDy=0;" parent="1" source="ZdwJ0yHTc_Pz8evwpBD1-26" target="ZdwJ0yHTc_Pz8evwpBD1-37" edge="1">
          <mxGeometry width="50" height="50" relative="1" as="geometry">
            <mxPoint x="593" y="390" as="sourcePoint" />
            <mxPoint x="643" y="340" as="targetPoint" />
          </mxGeometry>
        </mxCell>
        <mxCell id="ZdwJ0yHTc_Pz8evwpBD1-46" value="" style="endArrow=none;html=1;rounded=0;exitX=1;exitY=0.5;exitDx=0;exitDy=0;entryX=0;entryY=0.5;entryDx=0;entryDy=0;" parent="1" source="ZdwJ0yHTc_Pz8evwpBD1-14" target="FS9AGndfqr0U76EZq8IF-29" edge="1">
          <mxGeometry width="50" height="50" relative="1" as="geometry">
            <mxPoint x="1083" y="450" as="sourcePoint" />
            <mxPoint x="923" y="270" as="targetPoint" />
          </mxGeometry>
        </mxCell>
        <mxCell id="ZdwJ0yHTc_Pz8evwpBD1-47" value="" style="endArrow=none;html=1;rounded=0;exitX=1;exitY=0.5;exitDx=0;exitDy=0;entryX=0;entryY=0.5;entryDx=0;entryDy=0;" parent="1" source="FS9AGndfqr0U76EZq8IF-29" target="ZdwJ0yHTc_Pz8evwpBD1-5" edge="1">
          <mxGeometry width="50" height="50" relative="1" as="geometry">
            <mxPoint x="1130" y="450" as="sourcePoint" />
            <mxPoint x="1180" y="400" as="targetPoint" />
          </mxGeometry>
        </mxCell>
        <mxCell id="ZdwJ0yHTc_Pz8evwpBD1-48" value="" style="endArrow=none;html=1;rounded=0;exitX=1;exitY=0.5;exitDx=0;exitDy=0;entryX=0;entryY=0.5;entryDx=0;entryDy=0;" parent="1" source="ZdwJ0yHTc_Pz8evwpBD1-38" target="ZdwJ0yHTc_Pz8evwpBD1-20" edge="1">
          <mxGeometry width="50" height="50" relative="1" as="geometry">
            <mxPoint x="1140" y="417.5" as="sourcePoint" />
            <mxPoint x="1190" y="367.5" as="targetPoint" />
          </mxGeometry>
        </mxCell>
        <mxCell id="ZdwJ0yHTc_Pz8evwpBD1-49" value="" style="endArrow=none;html=1;rounded=0;exitX=1;exitY=0.5;exitDx=0;exitDy=0;entryX=0;entryY=0.5;entryDx=0;entryDy=0;" parent="1" source="ZdwJ0yHTc_Pz8evwpBD1-26" target="ZdwJ0yHTc_Pz8evwpBD1-38" edge="1">
          <mxGeometry width="50" height="50" relative="1" as="geometry">
            <mxPoint x="1083" y="417.5" as="sourcePoint" />
            <mxPoint x="913" y="501" as="targetPoint" />
          </mxGeometry>
        </mxCell>
        <mxCell id="ptp1hikgjiv89V3cJquC-1" value="(1,1)" style="text;strokeColor=none;fillColor=none;align=left;verticalAlign=middle;spacingLeft=4;spacingRight=4;overflow=hidden;points=[[0,0.5],[1,0.5]];portConstraint=eastwest;rotatable=0;whiteSpace=wrap;html=1;" parent="1" vertex="1">
          <mxGeometry x="1220" y="480" width="40" height="20" as="geometry" />
        </mxCell>
        <mxCell id="ptp1hikgjiv89V3cJquC-2" value="(1,n)" style="text;strokeColor=none;fillColor=none;align=left;verticalAlign=middle;spacingLeft=4;spacingRight=4;overflow=hidden;points=[[0,0.5],[1,0.5]];portConstraint=eastwest;rotatable=0;whiteSpace=wrap;html=1;" parent="1" vertex="1">
          <mxGeometry x="803" y="480" width="40" height="20" as="geometry" />
        </mxCell>
        <mxCell id="ptp1hikgjiv89V3cJquC-5" value="(0,n)" style="text;strokeColor=none;fillColor=none;align=left;verticalAlign=middle;spacingLeft=4;spacingRight=4;overflow=hidden;points=[[0,0.5],[1,0.5]];portConstraint=eastwest;rotatable=0;whiteSpace=wrap;html=1;" parent="1" vertex="1">
          <mxGeometry x="271" y="250" width="40" height="20" as="geometry" />
        </mxCell>
        <mxCell id="ptp1hikgjiv89V3cJquC-7" value="(0,n)" style="text;strokeColor=none;fillColor=none;align=left;verticalAlign=middle;spacingLeft=4;spacingRight=4;overflow=hidden;points=[[0,0.5],[1,0.5]];portConstraint=eastwest;rotatable=0;whiteSpace=wrap;html=1;" parent="1" vertex="1">
          <mxGeometry x="663" y="250" width="40" height="20" as="geometry" />
        </mxCell>
        <mxCell id="ptp1hikgjiv89V3cJquC-8" value="(0,n)" style="text;strokeColor=none;fillColor=none;align=left;verticalAlign=middle;spacingLeft=4;spacingRight=4;overflow=hidden;points=[[0,0.5],[1,0.5]];portConstraint=eastwest;rotatable=0;whiteSpace=wrap;html=1;" parent="1" vertex="1">
          <mxGeometry x="803" y="250" width="40" height="20" as="geometry" />
        </mxCell>
        <mxCell id="ptp1hikgjiv89V3cJquC-9" value="(0,n)" style="text;strokeColor=none;fillColor=none;align=left;verticalAlign=middle;spacingLeft=4;spacingRight=4;overflow=hidden;points=[[0,0.5],[1,0.5]];portConstraint=eastwest;rotatable=0;whiteSpace=wrap;html=1;" parent="1" vertex="1">
          <mxGeometry x="1217" y="250" width="40" height="20" as="geometry" />
        </mxCell>
        <mxCell id="ptp1hikgjiv89V3cJquC-12" value="" style="endArrow=none;html=1;rounded=0;entryX=1;entryY=0.5;entryDx=0;entryDy=0;exitX=0;exitY=0.5;exitDx=0;exitDy=0;" parent="1" source="ZdwJ0yHTc_Pz8evwpBD1-21" target="ZdwJ0yHTc_Pz8evwpBD1-20" edge="1">
          <mxGeometry width="50" height="50" relative="1" as="geometry">
            <mxPoint x="1300" y="567.5" as="sourcePoint" />
            <mxPoint x="1350" y="517.5" as="targetPoint" />
          </mxGeometry>
        </mxCell>
        <mxCell id="ptp1hikgjiv89V3cJquC-14" value="" style="endArrow=none;html=1;rounded=0;entryX=1;entryY=0.75;entryDx=0;entryDy=0;exitX=0;exitY=0;exitDx=0;exitDy=0;" parent="1" source="ZdwJ0yHTc_Pz8evwpBD1-23" target="ZdwJ0yHTc_Pz8evwpBD1-20" edge="1">
          <mxGeometry width="50" height="50" relative="1" as="geometry">
            <mxPoint x="1305" y="587.5" as="sourcePoint" />
            <mxPoint x="1355" y="537.5" as="targetPoint" />
          </mxGeometry>
        </mxCell>
        <mxCell id="ptp1hikgjiv89V3cJquC-15" value="" style="endArrow=none;html=1;rounded=0;exitX=0;exitY=0;exitDx=0;exitDy=0;entryX=0.75;entryY=1;entryDx=0;entryDy=0;" parent="1" source="ZdwJ0yHTc_Pz8evwpBD1-24" target="ZdwJ0yHTc_Pz8evwpBD1-20" edge="1">
          <mxGeometry width="50" height="50" relative="1" as="geometry">
            <mxPoint x="1340" y="597.5" as="sourcePoint" />
            <mxPoint x="1390" y="547.5" as="targetPoint" />
          </mxGeometry>
        </mxCell>
        <mxCell id="ptp1hikgjiv89V3cJquC-16" value="" style="endArrow=none;html=1;rounded=0;exitX=0.5;exitY=0;exitDx=0;exitDy=0;entryX=0.5;entryY=1;entryDx=0;entryDy=0;" parent="1" source="ZdwJ0yHTc_Pz8evwpBD1-22" target="ZdwJ0yHTc_Pz8evwpBD1-20" edge="1">
          <mxGeometry width="50" height="50" relative="1" as="geometry">
            <mxPoint x="1250" y="587.5" as="sourcePoint" />
            <mxPoint x="1300" y="537.5" as="targetPoint" />
          </mxGeometry>
        </mxCell>
        <mxCell id="ptp1hikgjiv89V3cJquC-17" value="" style="endArrow=none;html=1;rounded=0;exitX=0.5;exitY=0;exitDx=0;exitDy=0;entryX=0.25;entryY=1;entryDx=0;entryDy=0;" parent="1" source="ZdwJ0yHTc_Pz8evwpBD1-25" target="ZdwJ0yHTc_Pz8evwpBD1-20" edge="1">
          <mxGeometry width="50" height="50" relative="1" as="geometry">
            <mxPoint x="1200" y="587.5" as="sourcePoint" />
            <mxPoint x="1250" y="537.5" as="targetPoint" />
          </mxGeometry>
        </mxCell>
        <mxCell id="ptp1hikgjiv89V3cJquC-18" value="" style="endArrow=none;html=1;rounded=0;exitX=1;exitY=0.5;exitDx=0;exitDy=0;entryX=0;entryY=0.5;entryDx=0;entryDy=0;" parent="1" source="ZdwJ0yHTc_Pz8evwpBD1-29" target="ZdwJ0yHTc_Pz8evwpBD1-26" edge="1">
          <mxGeometry width="50" height="50" relative="1" as="geometry">
            <mxPoint x="713" y="557.5" as="sourcePoint" />
            <mxPoint x="763" y="507.5" as="targetPoint" />
          </mxGeometry>
        </mxCell>
        <mxCell id="ptp1hikgjiv89V3cJquC-19" value="" style="endArrow=none;html=1;rounded=0;exitX=1;exitY=0;exitDx=0;exitDy=0;entryX=0;entryY=0.75;entryDx=0;entryDy=0;" parent="1" source="ZdwJ0yHTc_Pz8evwpBD1-28" target="ZdwJ0yHTc_Pz8evwpBD1-26" edge="1">
          <mxGeometry width="50" height="50" relative="1" as="geometry">
            <mxPoint x="683" y="577.5" as="sourcePoint" />
            <mxPoint x="733" y="527.5" as="targetPoint" />
          </mxGeometry>
        </mxCell>
        <mxCell id="ptp1hikgjiv89V3cJquC-20" value="" style="endArrow=none;html=1;rounded=0;exitX=0.5;exitY=0;exitDx=0;exitDy=0;entryX=0.5;entryY=1;entryDx=0;entryDy=0;" parent="1" source="ZdwJ0yHTc_Pz8evwpBD1-31" target="ZdwJ0yHTc_Pz8evwpBD1-26" edge="1">
          <mxGeometry width="50" height="50" relative="1" as="geometry">
            <mxPoint x="713" y="577.5" as="sourcePoint" />
            <mxPoint x="763" y="527.5" as="targetPoint" />
          </mxGeometry>
        </mxCell>
        <mxCell id="ptp1hikgjiv89V3cJquC-21" value="" style="endArrow=none;html=1;rounded=0;exitX=0.5;exitY=0;exitDx=0;exitDy=0;entryX=0.75;entryY=1;entryDx=0;entryDy=0;" parent="1" source="ZdwJ0yHTc_Pz8evwpBD1-27" target="ZdwJ0yHTc_Pz8evwpBD1-26" edge="1">
          <mxGeometry width="50" height="50" relative="1" as="geometry">
            <mxPoint x="713" y="577.5" as="sourcePoint" />
            <mxPoint x="763" y="527.5" as="targetPoint" />
          </mxGeometry>
        </mxCell>
        <mxCell id="ptp1hikgjiv89V3cJquC-22" value="Fecha reserva" style="ellipse;whiteSpace=wrap;html=1;align=center;" parent="1" vertex="1">
          <mxGeometry x="1040" y="200" width="90" height="40" as="geometry" />
        </mxCell>
        <mxCell id="ptp1hikgjiv89V3cJquC-23" value="" style="endArrow=none;html=1;rounded=0;entryX=0;entryY=0;entryDx=0;entryDy=0;exitX=1;exitY=1;exitDx=0;exitDy=0;" parent="1" source="ZdwJ0yHTc_Pz8evwpBD1-34" target="FS9AGndfqr0U76EZq8IF-29" edge="1">
          <mxGeometry width="50" height="50" relative="1" as="geometry">
            <mxPoint x="985" y="235" as="sourcePoint" />
            <mxPoint x="1070" y="220" as="targetPoint" />
          </mxGeometry>
        </mxCell>
        <mxCell id="ptp1hikgjiv89V3cJquC-24" value="" style="endArrow=none;html=1;rounded=0;entryX=0.5;entryY=1;entryDx=0;entryDy=0;exitX=1;exitY=0;exitDx=0;exitDy=0;" parent="1" source="FS9AGndfqr0U76EZq8IF-29" target="ptp1hikgjiv89V3cJquC-22" edge="1">
          <mxGeometry width="50" height="50" relative="1" as="geometry">
            <mxPoint x="1020" y="270" as="sourcePoint" />
            <mxPoint x="1070" y="220" as="targetPoint" />
          </mxGeometry>
        </mxCell>
        <mxCell id="ptp1hikgjiv89V3cJquC-26" value="" style="endArrow=none;html=1;rounded=0;exitX=1;exitY=1;exitDx=0;exitDy=0;entryX=0.25;entryY=0;entryDx=0;entryDy=0;" parent="1" source="ZdwJ0yHTc_Pz8evwpBD1-6" target="ZdwJ0yHTc_Pz8evwpBD1-5" edge="1">
          <mxGeometry width="50" height="50" relative="1" as="geometry">
            <mxPoint x="1357" y="360" as="sourcePoint" />
            <mxPoint x="1407" y="310" as="targetPoint" />
          </mxGeometry>
        </mxCell>
        <mxCell id="ptp1hikgjiv89V3cJquC-27" value="" style="endArrow=none;html=1;rounded=0;entryX=0.5;entryY=1;entryDx=0;entryDy=0;exitX=0.5;exitY=0;exitDx=0;exitDy=0;" parent="1" source="ZdwJ0yHTc_Pz8evwpBD1-5" target="ZdwJ0yHTc_Pz8evwpBD1-12" edge="1">
          <mxGeometry width="50" height="50" relative="1" as="geometry">
            <mxPoint x="1357" y="360" as="sourcePoint" />
            <mxPoint x="1407" y="310" as="targetPoint" />
          </mxGeometry>
        </mxCell>
        <mxCell id="ptp1hikgjiv89V3cJquC-28" value="" style="endArrow=none;html=1;rounded=0;exitX=0.75;exitY=0;exitDx=0;exitDy=0;entryX=0;entryY=1;entryDx=0;entryDy=0;" parent="1" source="ZdwJ0yHTc_Pz8evwpBD1-5" target="ZdwJ0yHTc_Pz8evwpBD1-13" edge="1">
          <mxGeometry width="50" height="50" relative="1" as="geometry">
            <mxPoint x="1357" y="360" as="sourcePoint" />
            <mxPoint x="1407" y="310" as="targetPoint" />
          </mxGeometry>
        </mxCell>
        <mxCell id="ptp1hikgjiv89V3cJquC-29" value="" style="endArrow=none;html=1;rounded=0;entryX=0;entryY=0.5;entryDx=0;entryDy=0;exitX=1;exitY=0.5;exitDx=0;exitDy=0;" parent="1" source="ZdwJ0yHTc_Pz8evwpBD1-5" target="ZdwJ0yHTc_Pz8evwpBD1-8" edge="1">
          <mxGeometry width="50" height="50" relative="1" as="geometry">
            <mxPoint x="1327" y="300" as="sourcePoint" />
            <mxPoint x="1377" y="250" as="targetPoint" />
          </mxGeometry>
        </mxCell>
        <mxCell id="ptp1hikgjiv89V3cJquC-30" value="" style="endArrow=none;html=1;rounded=0;entryX=0;entryY=0;entryDx=0;entryDy=0;exitX=1;exitY=0.75;exitDx=0;exitDy=0;" parent="1" source="ZdwJ0yHTc_Pz8evwpBD1-5" target="ZdwJ0yHTc_Pz8evwpBD1-9" edge="1">
          <mxGeometry width="50" height="50" relative="1" as="geometry">
            <mxPoint x="1327" y="300" as="sourcePoint" />
            <mxPoint x="1377" y="250" as="targetPoint" />
          </mxGeometry>
        </mxCell>
        <mxCell id="ptp1hikgjiv89V3cJquC-31" value="" style="endArrow=none;html=1;rounded=0;exitX=0.5;exitY=0;exitDx=0;exitDy=0;entryX=0.75;entryY=1;entryDx=0;entryDy=0;" parent="1" source="ZdwJ0yHTc_Pz8evwpBD1-11" target="ZdwJ0yHTc_Pz8evwpBD1-5" edge="1">
          <mxGeometry width="50" height="50" relative="1" as="geometry">
            <mxPoint x="1327" y="300" as="sourcePoint" />
            <mxPoint x="1377" y="250" as="targetPoint" />
          </mxGeometry>
        </mxCell>
        <mxCell id="ptp1hikgjiv89V3cJquC-32" value="" style="endArrow=none;html=1;rounded=0;exitX=0.5;exitY=0;exitDx=0;exitDy=0;entryX=0.25;entryY=1;entryDx=0;entryDy=0;" parent="1" source="ZdwJ0yHTc_Pz8evwpBD1-10" target="ZdwJ0yHTc_Pz8evwpBD1-5" edge="1">
          <mxGeometry width="50" height="50" relative="1" as="geometry">
            <mxPoint x="1327" y="300" as="sourcePoint" />
            <mxPoint x="1377" y="250" as="targetPoint" />
          </mxGeometry>
        </mxCell>
        <mxCell id="ptp1hikgjiv89V3cJquC-33" value="(0,n)" style="text;strokeColor=none;fillColor=none;align=left;verticalAlign=middle;spacingLeft=4;spacingRight=4;overflow=hidden;points=[[0,0.5],[1,0.5]];portConstraint=eastwest;rotatable=0;whiteSpace=wrap;html=1;" parent="1" vertex="1">
          <mxGeometry x="753" y="460" width="40" height="20" as="geometry" />
        </mxCell>
        <mxCell id="ptp1hikgjiv89V3cJquC-34" value="(0,n)" style="text;strokeColor=none;fillColor=none;align=left;verticalAlign=middle;spacingLeft=4;spacingRight=4;overflow=hidden;points=[[0,0.5],[1,0.5]];portConstraint=eastwest;rotatable=0;whiteSpace=wrap;html=1;" parent="1" vertex="1">
          <mxGeometry x="753" y="290" width="40" height="20" as="geometry" />
        </mxCell>
        <mxCell id="ptp1hikgjiv89V3cJquC-35" value="" style="endArrow=none;html=1;rounded=0;entryX=0.75;entryY=0;entryDx=0;entryDy=0;exitX=0;exitY=1;exitDx=0;exitDy=0;" parent="1" source="ZdwJ0yHTc_Pz8evwpBD1-19" target="ZdwJ0yHTc_Pz8evwpBD1-14" edge="1">
          <mxGeometry width="50" height="50" relative="1" as="geometry">
            <mxPoint x="773" y="300" as="sourcePoint" />
            <mxPoint x="823" y="250" as="targetPoint" />
          </mxGeometry>
        </mxCell>
        <mxCell id="ptp1hikgjiv89V3cJquC-36" value="" style="endArrow=none;html=1;rounded=0;exitX=0.75;exitY=0;exitDx=0;exitDy=0;entryX=0.289;entryY=0.955;entryDx=0;entryDy=0;entryPerimeter=0;" parent="1" source="ZdwJ0yHTc_Pz8evwpBD1-14" target="ZdwJ0yHTc_Pz8evwpBD1-18" edge="1">
          <mxGeometry width="50" height="50" relative="1" as="geometry">
            <mxPoint x="773" y="300" as="sourcePoint" />
            <mxPoint x="823" y="250" as="targetPoint" />
          </mxGeometry>
        </mxCell>
        <mxCell id="ptp1hikgjiv89V3cJquC-37" value="" style="endArrow=none;html=1;rounded=0;exitX=0.5;exitY=0;exitDx=0;exitDy=0;entryX=0.7;entryY=0.96;entryDx=0;entryDy=0;entryPerimeter=0;" parent="1" source="ZdwJ0yHTc_Pz8evwpBD1-14" target="ZdwJ0yHTc_Pz8evwpBD1-17" edge="1">
          <mxGeometry width="50" height="50" relative="1" as="geometry">
            <mxPoint x="723" y="260" as="sourcePoint" />
            <mxPoint x="773" y="210" as="targetPoint" />
          </mxGeometry>
        </mxCell>
        <mxCell id="ptp1hikgjiv89V3cJquC-38" value="" style="endArrow=none;html=1;rounded=0;entryX=0.564;entryY=0.997;entryDx=0;entryDy=0;entryPerimeter=0;exitX=0.037;exitY=0.007;exitDx=0;exitDy=0;exitPerimeter=0;" parent="1" source="ZdwJ0yHTc_Pz8evwpBD1-14" target="ZdwJ0yHTc_Pz8evwpBD1-15" edge="1">
          <mxGeometry width="50" height="50" relative="1" as="geometry">
            <mxPoint x="683" y="240" as="sourcePoint" />
            <mxPoint x="733" y="190" as="targetPoint" />
          </mxGeometry>
        </mxCell>
        <mxCell id="ptp1hikgjiv89V3cJquC-39" value="" style="endArrow=none;html=1;rounded=0;exitX=0;exitY=0.25;exitDx=0;exitDy=0;entryX=0.927;entryY=0.775;entryDx=0;entryDy=0;entryPerimeter=0;" parent="1" source="ZdwJ0yHTc_Pz8evwpBD1-14" target="ZdwJ0yHTc_Pz8evwpBD1-16" edge="1">
          <mxGeometry width="50" height="50" relative="1" as="geometry">
            <mxPoint x="683" y="240" as="sourcePoint" />
            <mxPoint x="733" y="190" as="targetPoint" />
          </mxGeometry>
        </mxCell>
        <mxCell id="ptp1hikgjiv89V3cJquC-40" value="Fecha de inicio" style="ellipse;whiteSpace=wrap;html=1;align=center;" parent="1" vertex="1">
          <mxGeometry x="990" y="550" width="80" height="47.5" as="geometry" />
        </mxCell>
        <mxCell id="ptp1hikgjiv89V3cJquC-41" value="" style="endArrow=none;html=1;rounded=0;exitX=0.5;exitY=0;exitDx=0;exitDy=0;entryX=0.5;entryY=1;entryDx=0;entryDy=0;" parent="1" source="ptp1hikgjiv89V3cJquC-40" target="ZdwJ0yHTc_Pz8evwpBD1-38" edge="1">
          <mxGeometry width="50" height="50" relative="1" as="geometry">
            <mxPoint x="990" y="397.5" as="sourcePoint" />
            <mxPoint x="1010" y="527.5" as="targetPoint" />
          </mxGeometry>
        </mxCell>
        <mxCell id="ptp1hikgjiv89V3cJquC-42" value="Fecha de inico de estadía" style="ellipse;whiteSpace=wrap;html=1;align=center;" parent="1" vertex="1">
          <mxGeometry x="350" y="300" width="110" height="50" as="geometry" />
        </mxCell>
        <mxCell id="ptp1hikgjiv89V3cJquC-43" value="Fecha de fin de estadía" style="ellipse;whiteSpace=wrap;html=1;align=center;" parent="1" vertex="1">
          <mxGeometry x="480" y="300" width="110" height="50" as="geometry" />
        </mxCell>
        <mxCell id="ptp1hikgjiv89V3cJquC-44" value="Habitación" style="ellipse;whiteSpace=wrap;html=1;align=center;" parent="1" vertex="1">
          <mxGeometry x="360" y="189" width="90" height="41" as="geometry" />
        </mxCell>
        <mxCell id="ptp1hikgjiv89V3cJquC-45" value="" style="endArrow=none;html=1;rounded=0;exitX=0;exitY=1;exitDx=0;exitDy=0;entryX=0.684;entryY=0.032;entryDx=0;entryDy=0;entryPerimeter=0;" parent="1" source="ZdwJ0yHTc_Pz8evwpBD1-36" target="ptp1hikgjiv89V3cJquC-42" edge="1">
          <mxGeometry width="50" height="50" relative="1" as="geometry">
            <mxPoint x="390" y="350" as="sourcePoint" />
            <mxPoint x="440" y="300" as="targetPoint" />
          </mxGeometry>
        </mxCell>
        <mxCell id="ptp1hikgjiv89V3cJquC-46" value="" style="endArrow=none;html=1;rounded=0;entryX=1;entryY=1;entryDx=0;entryDy=0;exitX=0.419;exitY=0.012;exitDx=0;exitDy=0;exitPerimeter=0;" parent="1" source="ptp1hikgjiv89V3cJquC-43" target="ZdwJ0yHTc_Pz8evwpBD1-36" edge="1">
          <mxGeometry width="50" height="50" relative="1" as="geometry">
            <mxPoint x="526.1099999999997" y="302.25" as="sourcePoint" />
            <mxPoint x="513" y="282.5" as="targetPoint" />
          </mxGeometry>
        </mxCell>
        <mxCell id="ptp1hikgjiv89V3cJquC-47" value="" style="endArrow=none;html=1;rounded=0;entryX=0.5;entryY=1;entryDx=0;entryDy=0;exitX=0;exitY=0;exitDx=0;exitDy=0;" parent="1" source="ZdwJ0yHTc_Pz8evwpBD1-36" target="ptp1hikgjiv89V3cJquC-44" edge="1">
          <mxGeometry width="50" height="50" relative="1" as="geometry">
            <mxPoint x="510" y="330" as="sourcePoint" />
            <mxPoint x="560" y="280" as="targetPoint" />
          </mxGeometry>
        </mxCell>
        <mxCell id="ptp1hikgjiv89V3cJquC-48" value="" style="endArrow=none;html=1;rounded=0;exitX=0.5;exitY=1;exitDx=0;exitDy=0;entryX=0.5;entryY=0;entryDx=0;entryDy=0;" parent="1" source="FS9AGndfqr0U76EZq8IF-3" target="ZdwJ0yHTc_Pz8evwpBD1-4" edge="1">
          <mxGeometry width="50" height="50" relative="1" as="geometry">
            <mxPoint x="231" y="270" as="sourcePoint" />
            <mxPoint x="281" y="220" as="targetPoint" />
          </mxGeometry>
        </mxCell>
        <mxCell id="ptp1hikgjiv89V3cJquC-49" value="" style="endArrow=none;html=1;rounded=0;entryX=0.25;entryY=1;entryDx=0;entryDy=0;exitX=1;exitY=0;exitDx=0;exitDy=0;" parent="1" source="FS9AGndfqr0U76EZq8IF-8" target="FS9AGndfqr0U76EZq8IF-3" edge="1">
          <mxGeometry width="50" height="50" relative="1" as="geometry">
            <mxPoint x="201" y="350" as="sourcePoint" />
            <mxPoint x="251" y="300" as="targetPoint" />
          </mxGeometry>
        </mxCell>
        <mxCell id="ptp1hikgjiv89V3cJquC-50" value="" style="endArrow=none;html=1;rounded=0;exitX=1;exitY=0.5;exitDx=0;exitDy=0;entryX=0;entryY=0.5;entryDx=0;entryDy=0;" parent="1" source="ZdwJ0yHTc_Pz8evwpBD1-3" target="FS9AGndfqr0U76EZq8IF-3" edge="1">
          <mxGeometry width="50" height="50" relative="1" as="geometry">
            <mxPoint x="201" y="350" as="sourcePoint" />
            <mxPoint x="251" y="300" as="targetPoint" />
          </mxGeometry>
        </mxCell>
        <mxCell id="ptp1hikgjiv89V3cJquC-51" value="" style="endArrow=none;html=1;rounded=0;exitX=1;exitY=1;exitDx=0;exitDy=0;entryX=0.25;entryY=0;entryDx=0;entryDy=0;" parent="1" source="ZdwJ0yHTc_Pz8evwpBD1-1" target="FS9AGndfqr0U76EZq8IF-3" edge="1">
          <mxGeometry width="50" height="50" relative="1" as="geometry">
            <mxPoint x="201" y="310" as="sourcePoint" />
            <mxPoint x="251" y="260" as="targetPoint" />
          </mxGeometry>
        </mxCell>
        <mxCell id="ptp1hikgjiv89V3cJquC-52" value="" style="endArrow=none;html=1;rounded=0;entryX=0.5;entryY=1;entryDx=0;entryDy=0;exitX=0.75;exitY=0;exitDx=0;exitDy=0;" parent="1" source="FS9AGndfqr0U76EZq8IF-3" target="ZdwJ0yHTc_Pz8evwpBD1-2" edge="1">
          <mxGeometry width="50" height="50" relative="1" as="geometry">
            <mxPoint x="171" y="300" as="sourcePoint" />
            <mxPoint x="221" y="250" as="targetPoint" />
          </mxGeometry>
        </mxCell>
        <mxCell id="ptp1hikgjiv89V3cJquC-54" value="" style="endArrow=none;html=1;rounded=0;exitX=1;exitY=0.5;exitDx=0;exitDy=0;entryX=0;entryY=0.5;entryDx=0;entryDy=0;" parent="1" source="ptp1hikgjiv89V3cJquC-62" target="ptp1hikgjiv89V3cJquC-55" edge="1">
          <mxGeometry width="50" height="50" relative="1" as="geometry">
            <mxPoint x="843" y="450" as="sourcePoint" />
            <mxPoint x="813" y="420" as="targetPoint" />
          </mxGeometry>
        </mxCell>
        <mxCell id="ptp1hikgjiv89V3cJquC-55" value="Servicios" style="ellipse;shape=doubleEllipse;margin=3;whiteSpace=wrap;html=1;align=center;" parent="1" vertex="1">
          <mxGeometry x="1130" y="365" width="90" height="40" as="geometry" />
        </mxCell>
        <mxCell id="ptp1hikgjiv89V3cJquC-56" value="Preferencias" style="ellipse;whiteSpace=wrap;html=1;align=center;" parent="1" vertex="1">
          <mxGeometry x="490" y="189.5" width="90" height="41" as="geometry" />
        </mxCell>
        <mxCell id="ptp1hikgjiv89V3cJquC-58" value="" style="endArrow=none;html=1;rounded=0;entryX=0.5;entryY=1;entryDx=0;entryDy=0;exitX=1;exitY=0;exitDx=0;exitDy=0;" parent="1" source="ZdwJ0yHTc_Pz8evwpBD1-36" target="ptp1hikgjiv89V3cJquC-56" edge="1">
          <mxGeometry width="50" height="50" relative="1" as="geometry">
            <mxPoint x="430" y="340" as="sourcePoint" />
            <mxPoint x="480" y="290" as="targetPoint" />
          </mxGeometry>
        </mxCell>
        <mxCell id="ptp1hikgjiv89V3cJquC-62" value="Suministrado por" style="shape=rhombus;perimeter=rhombusPerimeter;whiteSpace=wrap;html=1;align=center;" parent="1" vertex="1">
          <mxGeometry x="960" y="352" width="140" height="66" as="geometry" />
        </mxCell>
        <mxCell id="ptp1hikgjiv89V3cJquC-63" value="" style="endArrow=none;html=1;rounded=0;entryX=0;entryY=1;entryDx=0;entryDy=0;exitX=0.971;exitY=0.001;exitDx=0;exitDy=0;exitPerimeter=0;" parent="1" source="ZdwJ0yHTc_Pz8evwpBD1-26" target="ptp1hikgjiv89V3cJquC-62" edge="1">
          <mxGeometry width="50" height="50" relative="1" as="geometry">
            <mxPoint x="810" y="470" as="sourcePoint" />
            <mxPoint x="1000" y="440" as="targetPoint" />
          </mxGeometry>
        </mxCell>
        <mxCell id="ptp1hikgjiv89V3cJquC-64" value="" style="endArrow=none;html=1;rounded=0;entryX=0;entryY=0;entryDx=0;entryDy=0;exitX=0.987;exitY=0.965;exitDx=0;exitDy=0;exitPerimeter=0;" parent="1" source="ZdwJ0yHTc_Pz8evwpBD1-14" target="ptp1hikgjiv89V3cJquC-62" edge="1">
          <mxGeometry width="50" height="50" relative="1" as="geometry">
            <mxPoint x="783" y="393" as="sourcePoint" />
            <mxPoint x="978" y="314" as="targetPoint" />
          </mxGeometry>
        </mxCell>
        <mxCell id="ptp1hikgjiv89V3cJquC-65" value="" style="endArrow=none;html=1;rounded=0;exitX=1;exitY=1;exitDx=0;exitDy=0;entryX=0.019;entryY=0.01;entryDx=0;entryDy=0;entryPerimeter=0;" parent="1" source="ptp1hikgjiv89V3cJquC-62" target="ZdwJ0yHTc_Pz8evwpBD1-20" edge="1">
          <mxGeometry width="50" height="50" relative="1" as="geometry">
            <mxPoint x="1080" y="440" as="sourcePoint" />
            <mxPoint x="1130" y="390" as="targetPoint" />
          </mxGeometry>
        </mxCell>
        <mxCell id="ptp1hikgjiv89V3cJquC-66" value="(0,n)" style="text;strokeColor=none;fillColor=none;align=left;verticalAlign=middle;spacingLeft=4;spacingRight=4;overflow=hidden;points=[[0,0.5],[1,0.5]];portConstraint=eastwest;rotatable=0;whiteSpace=wrap;html=1;" parent="1" vertex="1">
          <mxGeometry x="1260" y="460" width="40" height="20" as="geometry" />
        </mxCell>
        <mxCell id="ptp1hikgjiv89V3cJquC-67" value="(0,n)" style="text;strokeColor=none;fillColor=none;align=left;verticalAlign=middle;spacingLeft=4;spacingRight=4;overflow=hidden;points=[[0,0.5],[1,0.5]];portConstraint=eastwest;rotatable=0;whiteSpace=wrap;html=1;" parent="1" vertex="1">
          <mxGeometry x="803" y="275" width="40" height="20" as="geometry" />
        </mxCell>
      </root>
    </mxGraphModel>
  </diagram>
</mxfile>
